<?xml version="1.0" encoding="utf-8"?>
<!-- Uploaded to: SVG Repo, www.svgrepo.com, Generator: SVG Repo Mixer Tools -->
<svg width="800px" height="800px" viewBox="0 0 1024 1024" class="icon"  version="1.1" xmlns="http://www.w3.org/2000/svg"><path d="M512 735.998c247.425 0 448-200.574 448-447.997H64c0 247.423 200.577 447.997 448 447.997z" fill="#0DB14B" /><path d="M512 674.222c210.681 0 381.471-170.789 381.471-381.469H130.53c0 210.68 170.79 381.469 381.47 381.469z" fill="#FF3B30" /><path d="M808.792 292.753c-24.008 187.581-184.137 332.595-378.248 332.595-54.69 0-106.645-11.594-153.67-32.322 64.802 50.814 146.391 81.194 235.125 81.194 210.681 0 381.471-170.788 381.471-381.468h-84.678z" fill="#030504" /><path d="M633.02 437.811c0-15.133 21.162-39.145 21.162-39.145s21.162 24.011 21.162 39.145c0 15.133-9.475 27.401-21.162 27.401-11.688 0.001-21.162-12.267-21.162-27.401zM763.346 437.811c0-15.133 21.162-39.145 21.162-39.145s21.163 24.011 21.163 39.145c0 15.133-9.475 27.401-21.163 27.401-11.687 0.001-21.162-12.267-21.162-27.401zM242.037 437.811c0-15.133 21.163-39.145 21.163-39.145s21.162 24.011 21.162 39.145c0 15.133-9.475 27.401-21.162 27.401-11.688 0.001-21.163-12.267-21.163-27.401zM347.893 437.811c0-15.133 21.162-39.145 21.162-39.145s21.162 24.011 21.162 39.145c0 15.133-9.474 27.401-21.162 27.401-11.687 0.001-21.162-12.267-21.162-27.401zM490.456 437.811c0-15.133 21.162-39.145 21.162-39.145s21.164 24.011 21.164 39.145c0 15.133-9.475 27.401-21.164 27.401-11.687 0.001-21.162-12.267-21.162-27.401zM433.431 537.606c0-15.133 21.162-39.145 21.162-39.145s21.162 24.011 21.162 39.145c0 15.134-9.475 27.401-21.162 27.401-11.688 0-21.162-12.267-21.162-27.401zM575.994 537.606c0-15.133 21.162-39.145 21.162-39.145s21.162 24.011 21.162 39.145c0 15.134-9.474 27.401-21.162 27.401-11.687 0-21.162-12.267-21.162-27.401z" fill="#152B3C" /></svg>